<svg height="512" viewBox="0 0 64 64" width="512" xmlns="http://www.w3.org/2000/svg"><g id="Outline"><path d="m35 13v-6a1 1 0 0 0 -1-1h-22a1 1 0 0 0 -1 1v6a1 1 0 0 0 1 1h22a1 1 0 0 0 1-1zm-2-1h-20v-4h20z"/><path d="m7 18v12a1 1 0 0 0 1 1h12a1 1 0 0 0 1-1v-5.758l-2 2v2.758h-10v-10h8.758l2-2h-11.758a1 1 0 0 0 -1 1z"/><path d="m22.293 17.293-7.293 7.293-2.293-2.293-1.414 1.414 3 3a1 1 0 0 0 1.414 0l8-8z"/><path d="m7 47a1 1 0 0 0 1 1h12a1 1 0 0 0 1-1v-5.758l-2 2v2.758h-10v-10h8.758l2-2h-11.758a1 1 0 0 0 -1 1z"/><path d="m12.707 39.293-1.414 1.414 3 3a1 1 0 0 0 1.414 0l8-8-1.414-1.414-7.293 7.293z"/><path d="m26 24h13v2h-13z"/><path d="m26 19h13v2h-13z"/><path d="m26 36h6v2h-6z"/><path d="m26 41h6v2h-6z"/><path d="m4 60v-56h38v21.356q1.012-.354 2-.773v-21.583a1 1 0 0 0 -1-1h-40a1 1 0 0 0 -1 1v58a1 1 0 0 0 1 1h40a.987.987 0 0 0 .308-.062 24.3 24.3 0 0 1 -2.702-1.938z"/><path d="m61.109 29.006a34.916 34.916 0 0 1 -12.639-3.889 1 1 0 0 0 -.94 0 34.916 34.916 0 0 1 -12.639 3.889 1 1 0 0 0 -.891.994v11.845a21.818 21.818 0 0 0 13.615 20.078 1 1 0 0 0 .77 0 21.818 21.818 0 0 0 13.615-20.078v-11.845a1 1 0 0 0 -.891-.994zm-1.109 12.839a19.808 19.808 0 0 1 -12 18.067 19.808 19.808 0 0 1 -12-18.067v-10.96a36.882 36.882 0 0 0 12-3.756 36.874 36.874 0 0 0 12 3.756z"/><path d="m39.707 41.293-1.414 1.414 6 6a1 1 0 0 0 1.414 0l12-12-1.414-1.414-11.293 11.293z"/><path d="m25 55h7v2h-7z"/><path d="m16 51h16v2h-16z"/></g></svg>