<svg id="Capa_1" enable-background="new 0 0 512 512" height="512" viewBox="0 0 512 512" width="512" xmlns="http://www.w3.org/2000/svg"><g><g><path d="m426.26 380.616c-21.128 0-38.317-17.177-38.317-38.289s17.189-38.289 38.317-38.289c21.112 0 38.289 17.177 38.289 38.289s-17.177 38.289-38.289 38.289zm0-56.578c-10.101 0-18.317 8.204-18.317 18.289s8.217 18.289 18.317 18.289c10.085 0 18.289-8.204 18.289-18.289s-8.204-18.289-18.289-18.289z"/></g><g><path d="m181.09 171.09v-70.531h167.672c31.436 0 57.01 25.562 57.01 56.981 0 31.436-25.574 57.01-57.01 57.01h-68.908c-5.522 0-10 4.478-10 10s4.478 10 10 10h68.908c42.463 0 77.01-34.547 77.01-77.01 0-42.447-34.547-76.981-77.01-76.981h-167.672v-70.559c0-5.522-4.478-10-10-10h-161.09c-5.522 0-10 4.478-10 10v161.09c0 5.522 4.478 10 10 10h161.09c5.522 0 10-4.478 10-10zm-109.302-151.09h37.514v37.88l-13.496-8.318c-3.215-1.981-7.273-1.983-10.49-.002l-13.527 8.329v-37.889zm89.302 141.09h-141.09v-141.09h31.788v55.791c0 3.623 1.96 6.963 5.123 8.73 3.164 1.767 7.037 1.686 10.12-.216l23.524-14.486 23.499 14.484c1.606.99 3.426 1.487 5.247 1.487 1.678 0 3.358-.422 4.875-1.269 3.164-1.767 5.125-5.107 5.125-8.731v-55.79h31.788v141.09z"/><path d="m470.723 433.726c20.46-26.884 39.375-52.656 38.981-91.453-.027-46.004-37.45-83.418-83.444-83.418-46.01 0-83.445 37.419-83.473 83.423-.391 38.793 18.525 64.571 39 91.448-20.173 5.638-34.016 14.96-39.118 26.301h-249.332c-17.056 0-30.932-13.862-30.932-30.902 0-17.056 13.876-30.932 30.932-30.932h135.635c28.084 0 50.932-22.835 50.932-50.903 0-28.084-22.848-50.932-50.932-50.932h-126.763c-17.04 0-30.903-13.863-30.903-30.903s13.863-30.903 30.903-30.903h87.845c5.522 0 10-4.478 10-10s-4.478-10-10-10h-87.845c-28.068 0-50.903 22.835-50.903 50.903s22.835 50.903 50.903 50.903h126.763c17.056 0 30.932 13.876 30.932 30.932 0 17.04-13.876 30.903-30.932 30.903h-135.635c-28.084 0-50.932 22.848-50.932 50.932 0 28.067 22.848 50.902 50.932 50.902h249.319c3.862 8.653 12.812 16.199 26.142 21.823 15.514 6.545 35.921 10.15 57.462 10.15 21.529 0 41.928-3.605 57.438-10.151 18.25-7.704 28.302-19.005 28.302-31.824 0-15.81-15.447-29.077-41.277-36.299zm-107.937-91.293c.001-.035.001-.07.001-.105 0-34.999 28.474-63.473 63.473-63.473 34.983 0 63.444 28.474 63.444 63.473 0 .035 0 .07.001.105.348 32.909-16.681 55.266-36.397 81.151-2.057 2.7-22.108 26.604-22.108 26.604-1.729 1.997-3.525 3.161-4.941 3.204-1.954-.057-3.946-2.026-4.953-3.188 0 0-20.015-23.884-22.061-26.566-19.751-25.904-36.807-48.273-36.459-81.205zm63.474 149.567c-42.555 0-65.769-14.517-65.769-21.975 0-5.084 11.189-14.234 35.079-19.047l10.598 12.297c7.185 8.301 14.855 10.083 20.026 10.117h.064s.044 0 .065 0c5.157-.034 12.812-1.816 20.005-10.126l10.61-12.289c23.877 4.814 35.06 13.965 35.06 19.048.002 7.458-23.202 21.975-65.738 21.975z"/><path d="m224.953 224.55c0 5.522 4.478 10 10 10h.028c5.522 0 9.986-4.478 9.986-10s-4.492-10-10.015-10-9.999 4.477-9.999 10z"/></g></g></svg>