<?xml version="1.0"?>
<svg xmlns="http://www.w3.org/2000/svg" viewBox="0 0 64 64" width="512" height="512"><g id="Warehouse"><path d="M61.326,12.055l-29-10a.985.985,0,0,0-.652,0l-29,10A1,1,0,0,0,2,13V61a1,1,0,0,0,1,1H7a1,1,0,0,0,1-1V26H56V61a1,1,0,0,0,1,1h4a1,1,0,0,0,1-1V13A1,1,0,0,0,61.326,12.055ZM4,13.713,32,4.058l28,9.655V18H4ZM6,60H4V20H6ZM8,24V20H56v4ZM60,60H58V20h2Z"/><path d="M32,16a4,4,0,1,0-4-4A4,4,0,0,0,32,16Zm0-6a2,2,0,1,1-2,2A2,2,0,0,1,32,10Z"/><path d="M53,60H49V45a1,1,0,0,0-1-1H41V29a1,1,0,0,0-1-1H24a1,1,0,0,0-1,1V44H16a1,1,0,0,0-1,1V60H11a1,1,0,0,0,0,2H53a1,1,0,0,0,0-2ZM39,46h2v5.382l-.553-.277a1,1,0,0,0-.894,0L39,51.382ZM33,30v5.382l-.553-.277a1,1,0,0,0-.894,0L31,35.382V30Zm-8,0h4v7a1,1,0,0,0,1.447.9L32,37.118l1.553.777A1,1,0,0,0,35,37V30h4V44H25ZM24,46h1v5.382l-.553-.277a1,1,0,0,0-.894,0L23,51.382V46Zm-7,0h4v7a1,1,0,0,0,1.447.9L24,53.118l1.553.777A1,1,0,0,0,27,53V46h4V60H17Zm16,0h4v7a1,1,0,0,0,1.447.9L40,53.118l1.553.777A1,1,0,0,0,43,53V46h4V60H33Z"/></g></svg>
