<svg id="Layer_1" enable-background="new 0 0 512 512" height="512" viewBox="0 0 512 512" width="512" xmlns="http://www.w3.org/2000/svg"><g><path d="m458.617 54.278h-42.681c-4.142 0-7.5 3.357-7.5 7.5s3.358 7.5 7.5 7.5h42.681c21.165 0 38.383 17.263 38.383 38.481v286.441c0 21.219-17.219 38.481-38.383 38.481h-405.234c-21.165.002-38.383-17.261-38.383-38.48v-53.095c0-4.143-3.358-7.5-7.5-7.5s-7.5 3.357-7.5 7.5v53.095c0 29.49 23.947 53.481 53.383 53.481h152.263l-15.102 49.318h-33.262c-4.142 0-7.5 3.357-7.5 7.5s3.358 7.5 7.5 7.5h197.434c4.142 0 7.5-3.357 7.5-7.5s-3.358-7.5-7.5-7.5h-33.262l-15.101-49.317h152.262c29.436 0 53.383-23.991 53.383-53.481v-286.442c.002-29.49-23.946-53.482-53.381-53.482zm-252.385 442.722 15.102-49.317h69.333l15.101 49.317z"/><path d="m7.5 313.721c4.142 0 7.5-3.357 7.5-7.5v-198.461c0-21.219 17.218-38.481 38.383-38.481h21.779c4.142 0 7.5-3.357 7.5-7.5s-3.358-7.5-7.5-7.5h-21.779c-29.436-.001-53.383 23.991-53.383 53.481v198.461c0 4.142 3.358 7.5 7.5 7.5z"/><path d="m482.076 106.516c0-13.095-10.638-23.748-23.714-23.748h-26.693c-4.142 0-7.5 3.357-7.5 7.5s3.358 7.5 7.5 7.5h26.693c4.805 0 8.714 3.925 8.714 8.748v147.063c0 4.143 3.358 7.5 7.5 7.5s7.5-3.357 7.5-7.5z"/><path d="m482.076 364.458v-75.57c0-4.143-3.358-7.5-7.5-7.5s-7.5 3.357-7.5 7.5v75.57c0 4.824-3.909 8.749-8.714 8.749h-404.724c-4.805 0-8.714-3.925-8.714-8.749v-257.942c0-4.823 3.909-8.748 8.714-8.748h14.125c4.142 0 7.5-3.357 7.5-7.5s-3.358-7.5-7.5-7.5h-14.125c-13.076 0-23.714 10.653-23.714 23.748v257.942c0 13.096 10.638 23.749 23.714 23.749h404.724c13.076 0 23.714-10.653 23.714-23.749z"/><path d="m64.055 402.976c-4.142 0-7.5 3.357-7.5 7.5s3.358 7.5 7.5 7.5h30.639c4.142 0 7.5-3.357 7.5-7.5s-3.358-7.5-7.5-7.5z"/><path d="m124.055 402.976c-4.142 0-7.5 3.357-7.5 7.5s3.358 7.5 7.5 7.5h30.639c4.142 0 7.5-3.357 7.5-7.5s-3.358-7.5-7.5-7.5z"/><path d="m256.432 343.845c30.467 0 60.405-8.063 86.579-23.318 25.394-14.8 46.72-35.992 61.673-61.284 2.108-3.566.926-8.165-2.639-10.273-3.567-2.107-8.165-.926-10.273 2.639-9.152 15.48-20.919 29.278-34.666 40.764-6.167-2.775-12.569-5.275-19.174-7.492 16.001-29.374 25.182-66.262 26.222-105.456h49.169c-.691 14.696-3.415 29.119-8.124 42.978-1.333 3.922.766 8.182 4.688 9.515.8.271 1.613.4 2.414.4 3.123 0 6.039-1.967 7.1-5.089 6.038-17.766 9.099-36.373 9.099-55.304-.001-94.801-77.19-171.925-172.068-171.925-27.432 0-53.653 6.26-77.936 18.606-21.355 10.858-40.488 26.33-55.656 44.957-2.368-.746-4.887-1.148-7.499-1.148-13.79 0-25.008 11.212-25.008 24.993 0 6.959 2.861 13.262 7.468 17.798-8.919 21.113-13.437 43.527-13.437 66.716 0 94.799 77.189 171.923 172.068 171.923zm-156.89-164.422h49.168c1.04 39.194 10.221 76.082 26.222 105.456-6.581 2.209-12.96 4.699-19.106 7.462-32.694-27.31-54.141-67.633-56.284-112.918zm70.216 123.31c4.277-1.696 8.664-3.258 13.15-4.683 5.101 7.581 10.595 14.282 16.412 20.058-10.442-4.086-20.342-9.257-29.562-15.375zm79.174 25.597c-18.535-2.55-36.097-14.518-50.69-34.529 16.029-3.821 33.071-6.02 50.69-6.506zm0-56.04c-20.666.541-40.632 3.318-59.273 8.201-15.787-27.625-24.884-63.096-25.943-101.068h85.217v20.563c-10.137 3.191-17.509 12.674-17.509 23.845 0 11.17 7.372 20.653 17.509 23.844v24.615zm15 56.04v-41.035c17.619.486 34.661 2.685 50.69 6.506-14.594 20.011-32.155 31.979-50.69 34.529zm79.245-25.569c-2.524 1.675-5.098 3.278-7.72 4.806-7.045 4.106-14.389 7.641-21.957 10.584 5.833-5.786 11.342-12.502 16.455-20.102 4.511 1.434 8.922 3.006 13.222 4.712zm8.472-174.045c-5.519 0-10.008-4.483-10.008-9.993s4.49-9.993 10.008-9.993c5.519 0 10.009 4.483 10.009 9.993s-4.49 9.993-10.009 9.993zm61.672 35.707h-49.169c-.209-7.803-.744-15.569-1.599-23.21 8.342-4.056 14.105-12.613 14.105-22.49 0-13.465-10.709-24.477-24.063-24.975-3.994-12.562-8.923-24.234-14.66-34.782 6.58-2.209 12.958-4.698 19.103-7.46 32.693 27.308 54.14 67.631 56.283 112.917zm-70.216-123.311c-4.277 1.696-8.663 3.257-13.149 4.683-4.239-6.287-8.808-12.04-13.67-17.192-.936-.992-1.881-1.959-2.834-2.902 10.476 4.091 20.407 9.275 29.653 15.411zm-79.173-25.584c18.638 2.626 36.281 14.944 50.647 34.526-16.017 3.815-33.044 6.01-50.647 6.496zm0 56.027c20.661-.541 40.622-3.317 59.259-8.197 5.807 10.155 10.852 21.68 14.924 34.356-6.899 4.454-11.474 12.207-11.474 21.008 0 12.44 9.142 22.786 21.064 24.682.76 6.922 1.242 13.951 1.442 21.018h-85.215zm0 107.868h85.216c-1.06 37.971-10.156 73.442-25.943 101.068-18.641-4.882-38.607-7.66-59.273-8.201v-24.615c10.137-3.191 17.508-12.674 17.508-23.844 0-11.171-7.372-20.653-17.508-23.845zm-7.5 34.415c5.519 0 10.008 4.483 10.008 9.993s-4.49 9.992-10.008 9.992c-5.519 0-10.009-4.482-10.009-9.992s4.49-9.993 10.009-9.993zm-7.5-198.32v41.032c-17.646-.487-34.712-2.692-50.762-6.523 14.332-19.619 31.966-31.909 50.762-34.509zm-63.638 16.46c4.697-2.388 9.473-4.526 14.324-6.414-5.96 5.855-11.552 12.63-16.693 20.237-4.513-1.433-8.926-3.005-13.227-4.712 5.023-3.338 10.232-6.384 15.596-9.111zm-69.954 45.437c5.519 0 10.009 4.483 10.009 9.993s-4.49 9.993-10.009 9.993-10.008-4.483-10.008-9.993 4.49-9.993 10.008-9.993zm-4.146 34.643c1.349.226 2.734.344 4.146.344 13.79 0 25.009-11.212 25.009-24.993 0-5.723-1.935-11.002-5.185-15.22 6.207-7.515 13.123-14.456 20.608-20.707 6.163 2.773 12.561 5.27 19.161 7.486-7.312 13.422-13.378 28.801-17.864 45.784-1.058 4.005 1.332 8.108 5.336 9.166.642.17 1.286.251 1.92.251 3.322 0 6.358-2.224 7.247-5.587 4.499-17.037 10.642-32.267 18.022-45.243 18.66 4.893 38.647 7.676 59.336 8.217v92.868h-85.215c.221-7.792.784-15.544 1.682-23.134.487-4.113-2.452-7.843-6.566-8.33-4.104-.476-7.842 2.454-8.33 6.566-.968 8.17-1.568 16.516-1.792 24.897h-49.172c.843-18.134 4.752-35.692 11.657-52.365z"/><path d="m109.121 298.688h-32.141c-4.142 0-7.5 3.357-7.5 7.5s3.358 7.5 7.5 7.5h32.141c4.142 0 7.5-3.357 7.5-7.5s-3.358-7.5-7.5-7.5z"/><path d="m69.48 341.188c0 4.143 3.358 7.5 7.5 7.5h52.11c4.142 0 7.5-3.357 7.5-7.5s-3.358-7.5-7.5-7.5h-52.11c-4.142 0-7.5 3.357-7.5 7.5z"/></g></svg>